<svg width="362" height="49" viewBox="0 0 362 49" fill="none" xmlns="http://www.w3.org/2000/svg">
<path d="M37 8.875H22.8125V48H14.9688V8.875H0.90625V2.5H37V8.875Z" fill="#007765"/>
<path d="M49.75 17.875C52.2292 15 55.3646 13.5625 59.1562 13.5625C66.3646 13.5625 70.0208 17.6771 70.125 25.9062V48H62.5312V26.1875C62.5312 23.8542 62.0208 22.2083 61 21.25C60 20.2708 58.5208 19.7812 56.5625 19.7812C53.5208 19.7812 51.25 21.1354 49.75 23.8438V48H42.1562V0H49.75V17.875Z" fill="#007765"/>
<path d="M92.7188 48.625C87.9062 48.625 84 47.1146 81 44.0938C78.0208 41.0521 76.5312 37.0104 76.5312 31.9688V31.0312C76.5312 27.6562 77.1771 24.6458 78.4688 22C79.7812 19.3333 81.6146 17.2604 83.9688 15.7812C86.3229 14.3021 88.9479 13.5625 91.8438 13.5625C96.4479 13.5625 100 15.0312 102.5 17.9688C105.021 20.9062 106.281 25.0625 106.281 30.4375V33.5H84.1875C84.4167 36.2917 85.3438 38.5 86.9688 40.125C88.6146 41.75 90.6771 42.5625 93.1562 42.5625C96.6354 42.5625 99.4688 41.1562 101.656 38.3438L105.75 42.25C104.396 44.2708 102.583 45.8438 100.312 46.9688C98.0625 48.0729 95.5312 48.625 92.7188 48.625ZM91.8125 19.6562C89.7292 19.6562 88.0417 20.3854 86.75 21.8438C85.4792 23.3021 84.6667 25.3333 84.3125 27.9375H98.7812V27.375C98.6146 24.8333 97.9375 22.9167 96.75 21.625C95.5625 20.3125 93.9167 19.6562 91.8125 19.6562Z" fill="#007765"/>
<path d="M136.781 31.0938V48H128.875V2.5H146.281C151.365 2.5 155.396 3.82292 158.375 6.46875C161.375 9.11458 162.875 12.6146 162.875 16.9688C162.875 21.4271 161.406 24.8958 158.469 27.375C155.552 29.8542 151.458 31.0938 146.188 31.0938H136.781ZM136.781 24.75H146.281C149.094 24.75 151.24 24.0938 152.719 22.7812C154.198 21.4479 154.938 19.5312 154.938 17.0312C154.938 14.5729 154.188 12.6146 152.688 11.1562C151.188 9.67708 149.125 8.91667 146.5 8.875H136.781V24.75Z" fill="#007765"/>
<path d="M186.781 21.125C185.781 20.9583 184.75 20.875 183.688 20.875C180.208 20.875 177.865 22.2083 176.656 24.875V48H169.062V14.1875H176.312L176.5 17.9688C178.333 15.0312 180.875 13.5625 184.125 13.5625C185.208 13.5625 186.104 13.7083 186.812 14L186.781 21.125Z" fill="#007765"/>
<path d="M189.031 30.7812C189.031 27.4688 189.688 24.4896 191 21.8438C192.312 19.1771 194.156 17.1354 196.531 15.7188C198.906 14.2812 201.635 13.5625 204.719 13.5625C209.281 13.5625 212.979 15.0312 215.812 17.9688C218.667 20.9062 220.208 24.8021 220.438 29.6562L220.469 31.4375C220.469 34.7708 219.823 37.75 218.531 40.375C217.26 43 215.427 45.0312 213.031 46.4688C210.656 47.9062 207.906 48.625 204.781 48.625C200.01 48.625 196.188 47.0417 193.312 43.875C190.458 40.6875 189.031 36.4479 189.031 31.1562V30.7812ZM196.625 31.4375C196.625 34.9167 197.344 37.6458 198.781 39.625C200.219 41.5833 202.219 42.5625 204.781 42.5625C207.344 42.5625 209.333 41.5625 210.75 39.5625C212.188 37.5625 212.906 34.6354 212.906 30.7812C212.906 27.3646 212.167 24.6562 210.688 22.6562C209.229 20.6562 207.24 19.6562 204.719 19.6562C202.24 19.6562 200.271 20.6458 198.812 22.625C197.354 24.5833 196.625 27.5208 196.625 31.4375Z" fill="#007765"/>
<path d="M256.562 31.4375C256.562 36.6875 255.385 40.8646 253.031 43.9688C250.698 47.0729 247.479 48.625 243.375 48.625C239.417 48.625 236.333 47.1979 234.125 44.3438L233.75 48H226.875V0H234.469V17.4375C236.656 14.8542 239.604 13.5625 243.312 13.5625C247.438 13.5625 250.677 15.0938 253.031 18.1562C255.385 21.2188 256.562 25.5 256.562 31V31.4375ZM248.969 30.7812C248.969 27.1146 248.323 24.3646 247.031 22.5312C245.74 20.6979 243.865 19.7812 241.406 19.7812C238.115 19.7812 235.802 21.2188 234.469 24.0938V38.0312C235.823 40.9688 238.156 42.4375 241.469 42.4375C243.844 42.4375 245.677 41.5521 246.969 39.7812C248.26 38.0104 248.927 35.3333 248.969 31.75V30.7812Z" fill="#007765"/>
<path d="M271.031 48H263.438V0H271.031V48Z" fill="#007765"/>
<path d="M294.219 48.625C289.406 48.625 285.5 47.1146 282.5 44.0938C279.521 41.0521 278.031 37.0104 278.031 31.9688V31.0312C278.031 27.6562 278.677 24.6458 279.969 22C281.281 19.3333 283.115 17.2604 285.469 15.7812C287.823 14.3021 290.448 13.5625 293.344 13.5625C297.948 13.5625 301.5 15.0312 304 17.9688C306.521 20.9062 307.781 25.0625 307.781 30.4375V33.5H285.688C285.917 36.2917 286.844 38.5 288.469 40.125C290.115 41.75 292.177 42.5625 294.656 42.5625C298.135 42.5625 300.969 41.1562 303.156 38.3438L307.25 42.25C305.896 44.2708 304.083 45.8438 301.812 46.9688C299.562 48.0729 297.031 48.625 294.219 48.625ZM293.312 19.6562C291.229 19.6562 289.542 20.3854 288.25 21.8438C286.979 23.3021 286.167 25.3333 285.812 27.9375H300.281V27.375C300.115 24.8333 299.438 22.9167 298.25 21.625C297.062 20.3125 295.417 19.6562 293.312 19.6562Z" fill="#007765"/>
<path d="M320.844 14.1875L321.062 17.7188C323.438 14.9479 326.688 13.5625 330.812 13.5625C335.333 13.5625 338.427 15.2917 340.094 18.75C342.552 15.2917 346.01 13.5625 350.469 13.5625C354.198 13.5625 356.969 14.5938 358.781 16.6562C360.615 18.7188 361.552 21.7604 361.594 25.7812V48H354V26C354 23.8542 353.531 22.2812 352.594 21.2812C351.656 20.2812 350.104 19.7812 347.938 19.7812C346.208 19.7812 344.792 20.25 343.688 21.1875C342.604 22.1042 341.844 23.3125 341.406 24.8125L341.438 48H333.844V25.75C333.74 21.7708 331.708 19.7812 327.75 19.7812C324.708 19.7812 322.552 21.0208 321.281 23.5V48H313.688V14.1875H320.844Z" fill="#007765"/>
</svg>
